<?xml version="1.0" standalone="no"?>
<!DOCTYPE svg PUBLIC "-//W3C//DTD SVG 20010904//EN"
 "http://www.w3.org/TR/2001/REC-SVG-20010904/DTD/svg10.dtd">
<svg version="1.0" xmlns="http://www.w3.org/2000/svg"
 width="1920.000000pt" height="1080.000000pt" viewBox="0 0 1920.000000 1080.000000"
 preserveAspectRatio="xMidYMid meet">

<g transform="translate(0.000000,1080.000000) scale(0.100000,-0.100000)"
fill="#000000" stroke="none">
<path d="M3150 9451 c-118 -3 -221 -10 -227 -14 -58 -38 -71 -592 -53 -2242 7
-627 15 -1692 19 -2367 l6 -1228 28 -27 c35 -36 70 -38 545 -28 l363 7 11 27
c17 39 17 619 1 648 -17 28 -34 31 -264 38 l-196 7 -7 72 c-23 261 -45 1442
-46 2391 0 549 16 1592 29 1818 12 227 16 229 281 202 171 -18 182 -18 198 -1
15 15 17 46 20 249 4 302 -2 389 -33 425 l-23 27 -219 1 c-120 0 -315 -2 -433
-5z"/>
<path d="M15343 9450 c-56 -18 -58 -27 -58 -345 0 -159 4 -303 8 -319 l8 -29
72 6 c40 3 134 11 210 18 132 13 141 12 175 -6 26 -14 41 -31 49 -57 7 -22 17
-179 25 -395 17 -468 17 -2725 0 -3223 -12 -353 -28 -639 -38 -672 -5 -16 -19
-18 -107 -18 -190 -1 -354 -16 -381 -34 l-26 -16 0 -233 c0 -195 11 -391 22
-403 2 -1 208 -6 458 -10 494 -8 515 -6 548 44 16 24 17 117 23 1252 4 674 12
1756 20 2405 13 1190 7 1715 -21 1910 -14 94 -18 105 -43 114 -34 13 -906 22
-944 11z"/>
<path d="M4710 8845 c-392 -65 -695 -327 -823 -713 -49 -147 -68 -262 -68
-422 -1 -420 176 -779 485 -984 97 -65 180 -103 307 -140 295 -85 730 -45
1004 91 72 36 205 126 239 161 26 28 27 31 10 40 -34 17 -613 282 -618 282 -3
0 -28 -25 -57 -55 -32 -34 -77 -67 -116 -87 -55 -27 -76 -32 -141 -32 -95 0
-158 29 -222 101 -240 272 -221 965 34 1240 67 72 139 112 219 120 116 12 210
-34 275 -135 l37 -58 288 100 288 99 -38 40 c-151 157 -372 280 -602 333 -135
32 -373 41 -501 19z"/>
<path d="M6725 8849 c-471 -65 -813 -336 -957 -759 -84 -247 -79 -552 12 -802
116 -316 373 -562 705 -673 250 -84 597 -97 892 -34 317 68 563 215 725 433
308 415 249 1021 -141 1429 -191 199 -436 330 -728 387 -124 25 -395 35 -508
19z m387 -410 c165 -35 284 -164 340 -368 31 -110 31 -357 1 -487 -27 -114
-79 -255 -124 -331 -46 -78 -172 -203 -233 -232 -113 -52 -238 -50 -355 7
-217 105 -345 434 -301 778 54 436 338 703 672 633z"/>
<path d="M8219 8697 l-25 -156 50 -5 c28 -3 85 -8 126 -11 133 -10 306 -38
279 -45 -13 -4 -108 -17 -209 -30 -102 -12 -190 -25 -196 -29 -7 -4 20 -279
87 -891 54 -487 98 -893 99 -904 0 -17 7 -18 113 -12 61 4 175 13 252 21 77 8
181 17 230 21 50 3 92 10 95 14 3 3 57 17 120 29 769 150 1265 447 1395 835
45 135 33 300 -31 429 -96 191 -305 377 -574 512 -416 208 -964 330 -1670 370
l-115 7 -26 -155z m1151 -495 c36 -25 99 -80 141 -122 245 -246 263 -544 47
-775 -95 -102 -220 -183 -380 -246 l-51 -20 6 158 c4 87 12 370 18 628 6 259
13 476 15 483 5 16 103 -35 204 -106z"/>
<path d="M12975 8838 c-9 -29 -48 -289 -43 -293 2 -3 91 -9 197 -15 193 -10
371 -27 380 -35 2 -3 -3 -5 -13 -5 -20 0 -482 -59 -511 -65 -20 -4 -19 -18 78
-907 55 -497 100 -904 102 -906 3 -3 679 50 684 54 2 2 6 107 9 234 3 126 8
230 13 230 5 0 174 -114 376 -253 203 -139 373 -256 379 -260 9 -5 918 254
930 266 2 1 -228 128 -511 281 -283 153 -512 282 -509 287 3 5 12 9 20 9 35 0
328 105 431 154 199 96 321 196 381 311 38 73 38 178 -1 257 -40 82 -106 149
-216 223 -358 238 -1007 386 -1906 435 -238 13 -265 13 -270 -2z m1113 -468
c96 -36 210 -100 263 -148 61 -55 89 -107 89 -167 0 -26 -9 -63 -20 -84 -52
-104 -241 -212 -468 -270 l-74 -20 6 167 c3 92 9 260 12 373 l6 207 64 -18
c35 -10 90 -28 122 -40z"/>
<path d="M10939 7798 c-261 -551 -474 -1006 -474 -1011 0 -8 610 -166 645
-167 10 0 52 79 124 238 60 130 113 241 118 246 6 8 512 -47 644 -70 31 -6 32
-9 104 -215 l73 -210 41 6 c23 3 231 30 464 59 233 30 426 56 428 59 3 3 -223
458 -501 1011 -367 729 -511 1006 -523 1006 -9 0 -161 11 -337 25 -176 14
-323 25 -326 25 -3 0 -219 -451 -480 -1002z m879 -164 c52 -146 92 -267 90
-269 -6 -6 -418 49 -416 55 29 70 223 480 227 480 3 0 48 -120 99 -266z"/>
<path d="M8500 6135 c-392 -65 -695 -327 -823 -713 -49 -147 -68 -262 -68
-422 -1 -420 176 -779 485 -984 204 -136 444 -196 736 -183 276 12 497 77 693
203 37 24 70 44 73 44 3 0 4 -38 3 -85 -3 -52 0 -85 6 -85 9 0 531 127 616
150 l37 10 6 158 c3 86 9 238 12 338 l6 180 340 23 c187 12 342 20 345 17 3
-3 2 -202 -3 -443 -6 -241 -9 -439 -9 -441 3 -4 927 116 932 122 4 4 -175
1779 -193 1912 l-6 40 -341 26 c-188 14 -343 25 -343 25 -1 -1 -6 -206 -12
-456 -7 -304 -14 -456 -21 -460 -10 -7 -672 -54 -677 -48 -1 1 5 224 14 494 8
271 14 495 11 497 -2 2 -130 14 -284 25 -154 12 -308 24 -342 27 l-63 6 0
-178 0 -178 -52 50 c-160 155 -353 258 -577 310 -135 32 -373 41 -501 19z
m374 -409 c64 -19 111 -58 155 -125 l36 -57 280 97 c154 53 281 96 282 95 3
-3 -28 -1530 -32 -1534 -2 -3 -128 52 -279 122 -151 69 -277 126 -280 126 -3
0 -28 -25 -57 -55 -32 -34 -77 -67 -116 -87 -55 -27 -76 -32 -141 -32 -64 0
-86 5 -128 27 -224 115 -324 558 -223 986 39 169 143 339 245 402 78 48 173
60 258 35z"/>
<path d="M6345 6103 c-643 -20 -1171 -36 -1172 -37 -5 -4 49 -301 55 -307 4
-3 282 2 617 12 336 11 619 18 630 16 11 -1 -104 -17 -255 -36 -151 -19 -279
-37 -283 -41 -8 -7 183 -1783 193 -1801 7 -10 671 38 681 49 4 4 18 418 32
920 13 502 27 915 29 918 3 2 194 10 426 17 232 8 425 16 428 19 4 5 -23 186
-42 281 -7 33 161 34 -1339 -10z"/>
<path d="M11846 6129 c-12 -35 -48 -290 -42 -296 3 -4 155 -12 337 -19 182 -6
332 -14 334 -16 2 -2 -138 -21 -312 -43 -220 -28 -317 -43 -320 -52 -5 -11
186 -1793 192 -1801 3 -3 1767 68 1781 73 9 3 40 303 32 311 -2 2 -556 -19
-1030 -39 l-87 -3 6 255 c3 141 6 257 7 258 1 1 138 11 306 23 167 11 305 21
305 23 3 3 25 260 25 286 l0 24 -127 -7 c-71 -4 -211 -13 -312 -20 l-183 -12
7 351 c4 192 11 354 15 358 4 5 214 2 466 -7 253 -9 495 -17 539 -18 l80 -3
26 153 c18 107 23 155 15 157 -6 2 -416 18 -911 34 -495 17 -955 34 -1022 37
-100 6 -123 4 -127 -7z"/>
<path d="M4250 3077 c-1 -1 -2 -89 -3 -195 l-2 -192 86 0 c47 0 120 -3 162 -6
l77 -7 0 141 c0 77 3 143 8 145 17 12 10228 -76 10240 -87 2 -3 5 -66 5 -141
l0 -135 138 -2 c77 -1 148 -2 159 -2 20 -1 21 4 21 194 l0 195 -178 2 c-98 2
-1431 12 -2963 23 -2648 19 -6687 54 -7412 64 -186 2 -338 3 -338 3z"/>
<path d="M4777 2624 c-3 -11 -8 -38 -12 -61 l-6 -41 58 -7 c117 -13 125 -18
38 -30 l-80 -10 3 -35 c13 -147 73 -674 77 -678 9 -9 247 18 338 39 201 44
324 100 420 188 69 64 97 114 104 187 5 47 2 63 -26 118 -37 76 -95 131 -196
187 -140 77 -382 137 -621 155 -84 6 -92 5 -97 -12z m476 -272 c109 -103 123
-214 40 -312 -34 -39 -92 -79 -144 -99 l-26 -9 4 206 c2 114 6 226 9 249 l5
43 31 -16 c17 -9 53 -37 81 -62z"/>
<path d="M6400 2624 c-73 -20 -126 -52 -181 -111 -185 -199 -151 -558 69 -703
129 -86 342 -94 509 -20 92 41 177 146 204 254 6 25 16 46 21 46 11 0 6 105
-5 116 -8 8 -469 -16 -479 -25 -4 -3 -4 -31 -1 -62 l6 -56 111 3 c102 3 108 2
72 -9 -22 -8 -45 -22 -50 -33 -80 -145 -201 -154 -262 -19 -84 182 2 475 138
475 37 0 84 -24 98 -50 6 -11 16 -20 22 -20 7 0 59 17 116 37 l105 37 -44 38
c-116 101 -298 142 -449 102z"/>
<path d="M7805 2624 c-209 -6 -388 -13 -398 -13 -15 -1 -17 -7 -13 -31 3 -16
9 -44 12 -61 l6 -31 222 5 c159 4 203 3 156 -4 -36 -5 -74 -11 -85 -14 -21 -4
-21 -6 17 -347 20 -189 38 -349 38 -357 0 -10 14 -12 63 -8 34 4 94 9 133 13
l72 6 6 186 c3 103 9 266 12 363 l6 176 159 5 c88 3 162 8 165 11 3 3 3 30 -1
61 l-7 56 -92 -2 c-50 0 -262 -7 -471 -14z"/>
<path d="M11477 2623 c-3 -5 -8 -31 -12 -60 l-7 -51 74 -6 c40 -4 98 -7 128
-9 46 -2 35 -4 -63 -16 -65 -8 -119 -17 -121 -20 -4 -8 72 -702 77 -708 5 -4
432 12 604 23 l91 6 4 60 3 60 -219 -8 -219 -7 5 97 c3 53 7 98 9 100 2 2 56
8 119 13 l115 8 3 63 3 62 -53 -5 c-29 -2 -83 -7 -120 -10 l-68 -6 0 49 c0 27
3 91 7 142 l6 92 211 -3 211 -4 7 54 c5 30 6 56 4 58 -4 4 -648 31 -763 33
-17 0 -34 -3 -36 -7z"/>
<path d="M12307 2614 c-3 -11 -8 -38 -12 -61 l-6 -41 58 -7 c117 -13 125 -18
38 -30 l-80 -10 3 -35 c13 -147 73 -674 77 -678 9 -9 247 18 338 39 201 44
324 100 420 188 69 64 97 114 104 187 5 47 2 63 -26 118 -37 76 -95 131 -196
187 -140 77 -382 137 -621 155 -84 6 -92 5 -97 -12z m476 -272 c109 -103 123
-214 40 -312 -34 -39 -92 -79 -144 -99 l-26 -9 4 206 c2 114 6 226 9 249 l5
43 31 -16 c17 -9 53 -37 81 -62z"/>
<path d="M8541 2599 c-5 -13 -88 -192 -184 -397 -112 -237 -171 -375 -164
-377 7 -2 65 -17 130 -34 l118 -29 13 32 c60 136 77 167 94 162 9 -3 67 -10
129 -17 l112 -12 27 -76 c15 -42 30 -79 33 -83 8 -9 342 32 354 42 5 4 -79
183 -187 398 l-195 390 -73 6 c-40 4 -101 9 -135 13 -59 5 -63 4 -72 -18z
m168 -434 c19 -53 31 -98 28 -101 -9 -9 -147 8 -147 18 0 14 74 178 80 178 3
0 21 -43 39 -95z"/>
<path d="M10266 2374 c-3 -132 -8 -325 -11 -431 l-5 -191 52 12 c29 7 87 21
129 31 l76 18 7 90 c3 50 6 133 6 186 0 69 3 92 11 84 6 -6 51 -85 99 -174
l88 -164 101 -3 102 -3 90 183 90 183 -7 -223 -6 -223 49 6 c26 4 109 14 183
24 l135 17 -2 29 c-5 56 -75 730 -76 731 -7 6 -263 21 -268 16 -4 -4 -70 -128
-147 -276 l-140 -269 -141 280 -140 281 -73 6 c-40 4 -101 9 -134 12 l-62 6
-6 -238z"/>
<path d="M13961 2589 c-5 -13 -88 -192 -184 -397 -112 -237 -171 -375 -164
-377 7 -2 65 -17 130 -34 l118 -29 13 32 c60 136 77 167 94 162 9 -3 67 -10
129 -17 l112 -12 27 -76 c15 -42 30 -79 33 -83 8 -9 342 32 354 42 5 4 -79
183 -187 398 l-195 390 -73 6 c-40 4 -101 9 -135 13 -59 5 -63 4 -72 -18z
m168 -434 c19 -53 31 -98 28 -101 -9 -9 -147 8 -147 18 0 14 74 178 80 178 3
0 21 -43 39 -95z"/>
<path d="M5878 2566 c-86 -11 -159 -24 -162 -27 -5 -4 52 -594 69 -716 l6 -41
72 -6 c40 -4 99 -9 133 -12 l61 -6 7 338 c3 187 7 373 8 414 1 67 -1 75 -18
76 -10 1 -90 -8 -176 -20z"/>
<path d="M7178 2566 c-86 -11 -159 -24 -162 -27 -5 -4 52 -594 69 -716 l6 -41
72 -6 c40 -4 99 -9 133 -12 l61 -6 7 338 c3 187 7 373 8 414 1 67 -1 75 -18
76 -10 1 -90 -8 -176 -20z"/>
<path d="M9350 2566 l-165 -21 2 -40 c6 -83 73 -738 76 -742 5 -4 688 24 692
29 1 2 5 29 7 62 l5 59 -141 -7 c-78 -3 -175 -7 -216 -8 l-75 -1 3 229 c1 126
5 282 8 347 6 110 5 117 -12 116 -11 -1 -93 -11 -184 -23z"/>
<path d="M13398 2556 c-86 -11 -159 -24 -162 -27 -5 -4 52 -594 69 -716 l6
-41 72 -6 c40 -4 99 -9 133 -12 l61 -6 7 338 c3 187 7 373 8 414 1 67 -1 75
-18 76 -10 1 -90 -8 -176 -20z"/>
<path d="M4250 1640 l0 -210 298 0 c780 0 9119 -78 10173 -95 l386 -7 0 211 0
211 -159 0 -158 0 0 -144 c0 -80 -4 -147 -9 -150 -18 -11 -10197 87 -10208 98
-2 2 -4 69 -4 150 l0 146 -159 0 -160 0 0 -210z"/>
</g>
</svg>
