<?xml version="1.0" standalone="no"?>
<!DOCTYPE svg PUBLIC "-//W3C//DTD SVG 20010904//EN"
 "http://www.w3.org/TR/2001/REC-SVG-20010904/DTD/svg10.dtd">
<svg version="1.0" xmlns="http://www.w3.org/2000/svg"
 width="1920.000000pt" height="1080.000000pt" viewBox="0 0 1920.000000 1080.000000"
 preserveAspectRatio="xMidYMid meet">

<g transform="translate(0.000000,1080.000000) scale(0.100000,-0.100000)"
fill="#000000" stroke="none">
<path d="M8724 6656 c-93 -26 -147 -63 -193 -132 -67 -101 -66 -94 -66 -664
l0 -515 29 -52 c40 -72 81 -111 104 -96 14 9 16 21 12 74 -3 35 -5 282 -4 549
0 430 2 491 17 535 24 72 68 120 140 154 93 43 154 54 285 50 107 -4 117 -2
120 14 5 23 -16 40 -88 75 -47 22 -70 26 -165 29 -90 2 -124 -2 -191 -21z"/>
<path d="M7424 6638 c-16 -7 -23 -23 -28 -62 -4 -28 -16 -102 -28 -164 -18
-98 -23 -113 -42 -116 -11 -3 -33 -7 -48 -11 -15 -3 -35 -16 -43 -28 -21 -32
-23 -107 -3 -121 10 -7 13 -23 10 -47 -5 -43 19 -73 54 -66 31 6 32 -6 12
-148 -9 -66 -17 -128 -17 -137 -1 -12 -15 -21 -43 -29 -79 -21 -86 -26 -98
-70 -12 -43 1 -99 22 -99 5 0 2 -7 -6 -16 -22 -21 -20 -40 5 -65 16 -16 29
-20 51 -15 l30 6 -6 -78 c-19 -251 -19 -252 -1 -272 11 -12 13 -20 7 -20 -26
0 -10 -45 33 -95 56 -66 96 -79 233 -73 105 4 132 14 132 51 0 19 1 19 13 4
24 -33 89 -50 210 -55 137 -6 167 3 167 50 0 15 7 72 16 126 9 53 19 135 23
182 l6 85 49 5 c38 4 53 11 68 31 23 30 37 87 38 145 0 52 -36 141 -60 147
-30 8 -43 89 -28 177 l13 74 39 8 c21 5 56 18 77 30 40 22 45 36 30 88 -4 14
-3 35 2 47 12 28 -3 66 -61 153 l-43 65 7 82 c9 112 1 148 -35 163 -16 6 -41
25 -57 41 -34 35 -56 37 -82 4 l-19 -24 -11 24 c-14 30 -39 37 -127 33 l-70
-3 -13 -42 -14 -42 -26 16 c-15 9 -41 30 -58 46 -27 24 -35 27 -53 18 -12 -7
-21 -16 -21 -21 0 -6 -9 -1 -20 10 -16 16 -33 20 -92 19 -40 0 -83 -5 -94 -11z
m586 -166 c-22 -121 -23 -142 -9 -159 8 -9 14 -30 14 -47 0 -22 7 -34 26 -45
39 -22 62 -8 57 34 -2 22 0 34 6 32 11 -4 11 -63 1 -123 -5 -30 -9 -32 -61
-39 -40 -5 -58 -12 -68 -28 -25 -39 -61 -338 -45 -368 5 -9 4 -20 -2 -26 -23
-23 48 -98 83 -88 15 6 18 1 18 -34 l0 -41 -55 0 c-80 0 -95 -18 -95 -116 0
-80 -24 -268 -40 -310 -8 -21 -16 -24 -55 -24 -44 0 -45 1 -34 22 15 28 38
203 39 289 0 64 -1 68 -36 99 -42 37 -63 36 -84 -5 l-15 -30 -3 25 c-2 14 -9
31 -14 38 -11 13 -96 17 -114 4 -32 -21 -44 -79 -60 -307 -8 -117 -19 -135
-83 -135 l-49 0 19 37 c13 26 19 58 19 104 0 37 7 98 15 134 19 79 15 95 -30
129 -38 29 -73 34 -82 11 -5 -13 -8 -12 -20 5 -8 12 -13 22 -12 24 2 1 16 7
32 14 15 6 27 18 27 26 0 10 15 17 46 22 69 10 81 40 109 282 12 105 13 129 1
156 -19 46 -64 79 -98 72 -38 -8 -42 6 -10 36 17 16 43 28 71 31 24 3 50 11
57 19 7 7 23 86 35 176 13 91 28 162 34 162 5 0 23 7 39 15 16 9 30 14 31 13
1 -2 -1 -34 -6 -73 -13 -112 -11 -162 7 -180 12 -12 13 -19 5 -29 -16 -19 1
-59 37 -85 42 -29 182 -31 211 -2 21 21 41 100 41 164 0 23 3 72 7 110 5 56 9
67 24 67 25 0 69 21 70 34 1 6 3 3 6 -7 2 -9 -1 -48 -7 -85z m-359 -1385 c-1
-12 -15 -9 -19 4 -3 6 1 10 8 8 6 -3 11 -8 11 -12z"/>
<path d="M7588 6123 c-18 -5 -27 -47 -53 -248 -12 -92 -12 -114 -1 -136 8 -15
11 -38 9 -51 -13 -67 148 -123 241 -84 33 14 33 14 49 122 45 301 45 296 -16
362 -35 36 -61 41 -78 14 -11 -18 -13 -17 -35 5 -22 22 -68 29 -116 16z"/>
<path d="M9744 6640 c-12 -5 -25 -13 -28 -18 -3 -5 -6 -346 -6 -758 l-2 -749
27 -21 c19 -15 23 -23 14 -26 -18 -6 -1 -45 42 -100 41 -51 79 -61 214 -54
477 24 456 22 544 50 71 24 92 36 136 80 86 86 85 74 91 661 5 549 4 569 -49
655 -37 61 -98 120 -123 120 -34 0 -48 -32 -33 -78 7 -25 12 -184 15 -487 2
-312 7 -468 16 -507 9 -44 9 -73 1 -122 -10 -57 -16 -69 -58 -110 -37 -35 -59
-48 -99 -56 -89 -18 -276 -29 -452 -28 l-172 1 13 31 c9 24 12 190 11 701 -1
369 -3 676 -6 683 -4 9 58 12 290 13 162 1 302 3 310 5 30 8 20 41 -19 67 -76
51 -123 57 -400 56 -141 0 -266 -4 -277 -9z"/>
<path d="M9303 6492 c-8 -5 -9 -52 -4 -177 4 -94 7 -171 6 -172 0 0 -31 -3
-69 -5 l-70 -3 3 62 c4 104 -53 194 -105 165 -14 -8 -21 -4 -38 22 -25 37 -98
76 -142 76 -44 0 -95 -38 -122 -90 l-23 -45 3 -467 3 -467 34 -35 c19 -20 43
-38 53 -42 11 -3 18 -15 18 -30 0 -81 163 -121 256 -63 55 34 58 47 62 256 l4
193 -30 30 c-32 31 -72 39 -90 18 -6 -7 -12 -80 -14 -163 -4 -161 -14 -202
-61 -226 -20 -11 -21 -11 -8 5 12 14 11 19 -7 39 -19 20 -21 37 -24 192 -2 94
-8 179 -13 189 -8 19 -8 19 15 3 49 -34 100 -12 100 43 0 16 6 32 13 37 6 4
57 11 112 14 55 3 108 9 118 14 17 7 18 -5 15 -261 -3 -261 -4 -270 -27 -314
-86 -163 -225 -222 -470 -199 -53 5 -103 7 -112 4 -55 -18 -13 -84 83 -130 94
-45 165 -58 297 -53 95 3 117 7 208 42 98 37 104 41 138 93 74 112 75 116 75
478 0 178 -3 331 -6 340 -4 9 -31 27 -60 40 -30 13 -57 31 -60 40 -7 18 -35
20 -51 4 -12 -12 -33 -4 -33 12 0 5 36 9 79 9 126 0 128 1 136 113 13 169 -18
288 -98 375 -38 40 -67 51 -94 34z m-239 -355 c13 -10 15 -16 8 -21 -24 -14
-11 -42 40 -88 l53 -47 -107 -1 c-88 0 -110 -3 -124 -17 -17 -17 -17 -17 -10
2 5 11 12 78 15 148 5 98 10 131 21 137 8 5 29 18 45 28 l30 19 5 -73 c4 -57
9 -76 24 -87z"/>
<path d="M10025 6406 c-17 -18 -25 -39 -30 -90 -6 -54 -1 -320 8 -411 1 -11
-2 -67 -7 -125 -10 -130 9 -415 29 -447 8 -12 24 -24 35 -28 15 -5 19 -12 15
-26 -4 -12 0 -31 10 -46 17 -25 18 -25 128 -22 90 3 119 8 147 24 66 39 65 31
68 541 2 297 0 469 -7 486 -14 37 -47 68 -72 68 -11 0 -32 14 -47 31 -39 48
-95 69 -180 69 -63 0 -76 -3 -97 -24z m275 -606 l-1 -450 -29 -15 c-16 -8 -40
-15 -54 -15 -21 0 -26 6 -32 36 -4 20 -3 69 2 108 5 39 9 190 10 336 0 146 2
307 2 358 l2 92 50 0 51 0 -1 -450z"/>
</g>
</svg>
